<?xml version="1.0" standalone="no"?><!DOCTYPE svg PUBLIC "-//W3C//DTD SVG 1.1//EN" "http://www.w3.org/Graphics/SVG/1.1/DTD/svg11.dtd"><svg t="1724223692001" class="icon" viewBox="0 0 1024 1024" version="1.1" xmlns="http://www.w3.org/2000/svg" p-id="53824" xmlns:xlink="http://www.w3.org/1999/xlink" width="24" height="24"><path d="M451.328 145.856a32 32 0 0 1 57.344 0l105.408 213.568 235.712 34.24a32 32 0 0 1 21.376 50.432l-3.648 4.16-170.56 166.272 40.32 234.752a32 32 0 0 1-41.728 35.776l-4.736-2.048L480 772.096l-210.816 110.912a32 32 0 0 1-46.912-28.608l0.448-5.12 40.256-234.752-170.496-166.272a32 32 0 0 1 12.352-53.376l5.376-1.216 235.648-34.24zM912 736a16 16 0 0 1 16 16v32a16 16 0 0 1-16 16h-128a16 16 0 0 1-16-16v-32a16 16 0 0 1 16-16h128zM480 232.32L395.84 402.816a32 32 0 0 1-24.064 17.536l-188.288 27.264 136.256 132.8a32 32 0 0 1 9.6 22.08l-0.384 6.272-32.192 187.328 168.32-88.448a32 32 0 0 1 24-2.304l5.76 2.304 168.32 88.448-32.128-187.328a32 32 0 0 1 5.184-23.552l4.032-4.8 136.192-132.8-188.16-27.264a32 32 0 0 1-20.864-12.16l-3.264-5.376L480 232.32zM912 576a16 16 0 0 1 16 16v32a16 16 0 0 1-16 16h-128a16 16 0 0 1-16-16v-32a16 16 0 0 1 16-16h128z m0-320a16 16 0 0 1 16 16v32a16 16 0 0 1-16 16h-224a16 16 0 0 1-16-16v-32a16 16 0 0 1 16-16h224z" fill="#ffffff" p-id="53825"></path></svg>