<?xml version="1.0" standalone="no"?><!DOCTYPE svg PUBLIC "-//W3C//DTD SVG 1.1//EN" "http://www.w3.org/Graphics/SVG/1.1/DTD/svg11.dtd"><svg t="1726284037759" class="icon" viewBox="0 0 1024 1024" version="1.1" xmlns="http://www.w3.org/2000/svg" p-id="41637" xmlns:xlink="http://www.w3.org/1999/xlink" width="256" height="256"><path d="M180.770572 0.268458C150.618911 0.268458 120.524247 18.336656 120.524247 43.586535V980.624926c0 25.249879 25.135884 43.318076 60.246325 43.318077s60.246325-18.068198 60.246325-43.318077V43.586535A58.707393 58.707393 0 0 0 180.713574 0.268458z m541.988933 92.050913a356.177184 356.177184 0 0 1-180.681977-46.053955 331.326288 331.326288 0 0 0-361.249959 15.389316v510.070351A359.084055 359.084055 0 0 1 361.167561 510.395806a346.658607 346.658607 0 0 1 180.681977 46.053955 331.26929 331.26929 0 0 0 361.306957-15.332319V30.990094a358.343088 358.343088 0 0 1-180.39699 61.329277z" fill="#F9463F" p-id="41638"></path></svg>